solid OpenSCAD_Model
  facet normal 0.964901 0.12009 0.233547
    outer loop
      vertex 71.134 156.123 10.7797
      vertex 73.7982 155.149 0.273385
      vertex 73.5671 157.069 0.240908
    endloop
  endfacet
  facet normal 0.964898 0.12012 0.233544
    outer loop
      vertex 73.7982 155.149 0.273385
      vertex 71.134 156.123 10.7797
      vertex 71.3981 154.216 10.6694
    endloop
  endfacet
  facet normal 0.790781 0.565851 0.233406
    outer loop
      vertex 69.3337 159.5 10.6673
      vertex 72.2229 159.841 0.0519935
      vertex 71.7983 160.459 -0.0076892
    endloop
  endfacet
  facet normal 0.79072 0.565942 0.233393
    outer loop
      vertex 72.2229 159.841 0.0519935
      vertex 69.3337 159.5 10.6673
      vertex 70.4323 157.919 10.779
    endloop
  endfacet
  facet normal -0.145332 -0.0254119 0.989057
    outer loop
      vertex -59.3735 -162.382 -8.29194
      vertex -59.4165 -162.846 -8.31018
      vertex 67.9021 -160.774 10.4512
    endloop
  endfacet
  facet normal 0.21416 0.967243 0.136294
    outer loop
      vertex 66.8044 163.067 -0.709537
      vertex 66.2206 161.667 10.1432
      vertex 68.6658 162.618 -0.447933
    endloop
  endfacet
  facet normal 0.21425 0.967223 0.136297
    outer loop
      vertex 66.2206 161.667 10.1432
      vertex 66.8044 163.067 -0.709537
      vertex 64.387 162.127 9.76114
    endloop
  endfacet
  facet normal -0.00592744 -0.999625 0.02672
    outer loop
      vertex -61.3643 -162.964 -9.13696
      vertex 10.7845 -163.377 -8.58261
      vertex 12.6253 -163.381 -8.3239
    endloop
  endfacet
  facet normal -0.00582888 -0.999889 0.013696
    outer loop
      vertex 10.7845 -163.377 -8.58261
      vertex -61.3643 -162.964 -9.13696
      vertex -61.394 -162.964 -9.1496
    endloop
  endfacet
  facet normal -0.145518 0.000766726 0.989355
    outer loop
      vertex 69.3337 159.5 10.6673
      vertex -59.2641 157.149 -8.24548
      vertex -59.2591 155.414 -8.2434
    endloop
  endfacet
  facet normal -0.460111 0.885503 -0.0646682
    outer loop
      vertex -65.7849 162.48 -19.3437
      vertex -68.5171 161.584 -12.1732
      vertex -66.8898 162.48 -11.4824
    endloop
  endfacet
  facet normal -0.460087 0.885516 -0.0646576
    outer loop
      vertex -68.5171 161.584 -12.1732
      vertex -65.7849 162.48 -19.3437
      vertex -67.476 161.584 -19.5814
    endloop
  endfacet
  facet normal -0.925904 0.354637 -0.13013
    outer loop
      vertex -71.5886 156.915 -13.4769
      vertex -69.9904 158.718 -19.9348
      vertex -70.6676 156.915 -20.03
    endloop
  endfacet
  facet normal -0.925905 0.354635 -0.130131
    outer loop
      vertex -69.9904 158.718 -19.9348
      vertex -71.5886 156.915 -13.4769
      vertex -70.9369 158.718 -13.2003
    endloop
  endfacet
  facet normal -0.138605 0.244579 0.959672
    outer loop
      vertex 64.387 162.127 9.76114
      vertex -59.4262 162.885 -8.31432
      vertex 66.2206 161.667 10.1432
    endloop
  endfacet
  facet normal -0.138498 0.247089 0.959044
    outer loop
      vertex -59.4262 162.885 -8.31432
      vertex 64.387 162.127 9.76114
      vertex -59.4446 162.905 -8.32213
    endloop
  endfacet
  facet normal 0.79078 0.56586 0.233388
    outer loop
      vertex 72.2229 159.841 0.0519935
      vertex 70.4323 157.919 10.779
      vertex 72.8873 158.874 0.145366
    endloop
  endfacet
  facet normal -0.144345 0.0686706 0.987142
    outer loop
      vertex 66.2206 161.667 10.1432
      vertex -59.4165 162.846 -8.31018
      vertex 67.9021 160.774 10.4512
    endloop
  endfacet
  facet normal -0.144341 0.0688871 0.987127
    outer loop
      vertex -59.4165 162.846 -8.31018
      vertex 66.2206 161.667 10.1432
      vertex -59.4262 162.885 -8.31432
    endloop
  endfacet
  facet normal 0.97437 -0 0.22495
    outer loop
      vertex 71.3981 -154.216 10.6694
      vertex 73.7982 155.149 0.273385
      vertex 71.3981 154.216 10.6694
    endloop
  endfacet
  facet normal 0.97437 0 0.22495
    outer loop
      vertex 73.7982 155.149 0.273385
      vertex 71.3981 -154.216 10.6694
      vertex 73.7982 -155.149 0.273385
    endloop
  endfacet
  facet normal -0.145556 -0.0042527 0.989341
    outer loop
      vertex -59.2786 -158.785 -8.25167
      vertex 67.9021 -160.774 10.4512
      vertex 69.3337 -159.5 10.6673
    endloop
  endfacet
  facet normal -0.145555 -0.00414613 0.989341
    outer loop
      vertex 67.9021 -160.774 10.4512
      vertex -59.2786 -158.785 -8.25167
      vertex -59.2804 -158.896 -8.2524
    endloop
  endfacet
  facet normal 0.904106 0.353233 0.240456
    outer loop
      vertex 70.4323 157.919 10.779
      vertex 73.5671 157.069 0.240908
      vertex 72.8873 158.874 0.145366
    endloop
  endfacet
  facet normal 0.904077 0.353318 0.24044
    outer loop
      vertex 73.5671 157.069 0.240908
      vertex 70.4323 157.919 10.779
      vertex 71.134 156.123 10.7797
    endloop
  endfacet
  facet normal 0.631055 0.746005 0.212714
    outer loop
      vertex 71.2396 160.954 -0.0862087
      vertex 69.3337 159.5 10.6673
      vertex 71.7983 160.459 -0.0076892
    endloop
  endfacet
  facet normal 0.631457 0.745657 0.212738
    outer loop
      vertex 69.3337 159.5 10.6673
      vertex 71.2396 160.954 -0.0862087
      vertex 67.9021 160.774 10.4512
    endloop
  endfacet
  facet normal -0.101153 0 0.994871
    outer loop
      vertex 69.3337 159.5 10.6673
      vertex 70.4323 -157.919 10.779
      vertex 70.4323 157.919 10.779
    endloop
  endfacet
  facet normal -0.101153 0 0.994871
    outer loop
      vertex 70.4323 -157.919 10.779
      vertex 69.3337 159.5 10.6673
      vertex 69.3337 -159.5 10.6673
    endloop
  endfacet
  facet normal -0.145548 -0.00245332 0.989348
    outer loop
      vertex -59.2641 -157.149 -8.24548
      vertex -59.2786 -158.785 -8.25167
      vertex 69.3337 -159.5 10.6673
    endloop
  endfacet
  facet normal -0.145492 0 0.989359
    outer loop
      vertex 69.3337 159.5 10.6673
      vertex 54.351 135 8.46399
      vertex 69.3337 -159.5 10.6673
    endloop
  endfacet
  facet normal -0.145495 1.71575e-06 0.989359
    outer loop
      vertex 69.3337 159.5 10.6673
      vertex 49.4041 135 7.7365
      vertex 54.351 135 8.46399
    endloop
  endfacet
  facet normal -0.145494 0 0.989359
    outer loop
      vertex 49.4041 135 7.7365
      vertex -59.2591 155.414 -8.2434
      vertex 49.4041 -135 7.7365
    endloop
  endfacet
  facet normal -0.145494 9.37584e-07 0.989359
    outer loop
      vertex -59.2591 155.414 -8.2434
      vertex 49.4041 135 7.7365
      vertex 69.3337 159.5 10.6673
    endloop
  endfacet
  facet normal -0.145492 0 0.989359
    outer loop
      vertex 54.351 -135 8.46399
      vertex 69.3337 -159.5 10.6673
      vertex 54.351 135 8.46399
    endloop
  endfacet
  facet normal -0.145495 -1.71575e-06 0.989359
    outer loop
      vertex 49.4041 -135 7.7365
      vertex 69.3337 -159.5 10.6673
      vertex 54.351 -135 8.46399
    endloop
  endfacet
  facet normal -0.145494 -9.37584e-07 0.989359
    outer loop
      vertex 49.4041 -135 7.7365
      vertex -59.2591 -155.414 -8.2434
      vertex 69.3337 -159.5 10.6673
    endloop
  endfacet
  facet normal -0.145494 0 0.989359
    outer loop
      vertex -59.2591 -155.414 -8.2434
      vertex 49.4041 -135 7.7365
      vertex -59.2591 155.414 -8.2434
    endloop
  endfacet
  facet normal 0.964898 -0.12012 0.233544
    outer loop
      vertex 71.134 -156.123 10.7797
      vertex 73.7982 -155.149 0.273385
      vertex 71.3981 -154.216 10.6694
    endloop
  endfacet
  facet normal 0.964901 -0.12009 0.233547
    outer loop
      vertex 73.7982 -155.149 0.273385
      vertex 71.134 -156.123 10.7797
      vertex 73.5671 -157.069 0.240908
    endloop
  endfacet
  facet normal 0.385384 0 0.922756
    outer loop
      vertex 71.134 156.123 10.7797
      vertex 71.3981 -154.216 10.6694
      vertex 71.3981 154.216 10.6694
    endloop
  endfacet
  facet normal 0.385384 0 0.922756
    outer loop
      vertex 71.3981 -154.216 10.6694
      vertex 71.134 156.123 10.7797
      vertex 71.134 -156.123 10.7797
    endloop
  endfacet
  facet normal -0.145531 -0.0122421 0.989278
    outer loop
      vertex -59.3353 -161.527 -8.27574
      vertex -59.3735 -162.382 -8.29194
      vertex 67.9021 -160.774 10.4512
    endloop
  endfacet
  facet normal 0.904077 -0.353318 0.24044
    outer loop
      vertex 70.4323 -157.919 10.779
      vertex 73.5671 -157.069 0.240908
      vertex 71.134 -156.123 10.7797
    endloop
  endfacet
  facet normal 0.904106 -0.353233 0.240456
    outer loop
      vertex 73.5671 -157.069 0.240908
      vertex 70.4323 -157.919 10.779
      vertex 72.8873 -158.874 0.145366
    endloop
  endfacet
  facet normal -0.990268 0 -0.139174
    outer loop
      vertex -70.8978 -155 -20.0623
      vertex -71.8101 155 -13.571
      vertex -70.8978 155 -20.0623
    endloop
  endfacet
  facet normal -0.990268 -0 -0.139174
    outer loop
      vertex -71.8101 155 -13.571
      vertex -70.8978 -155 -20.0623
      vertex -71.8101 -155 -13.571
    endloop
  endfacet
  facet normal 0.79072 -0.565942 0.233393
    outer loop
      vertex 69.3337 -159.5 10.6673
      vertex 72.2229 -159.841 0.0519935
      vertex 70.4323 -157.919 10.779
    endloop
  endfacet
  facet normal 0.790781 -0.565851 0.233406
    outer loop
      vertex 72.2229 -159.841 0.0519935
      vertex 69.3337 -159.5 10.6673
      vertex 71.7983 -160.459 -0.0076892
    endloop
  endfacet
  facet normal 0.631808 0.745329 0.212844
    outer loop
      vertex 70.3633 161.732 -0.209363
      vertex 67.9021 160.774 10.4512
      vertex 71.2396 160.954 -0.0862087
    endloop
  endfacet
  facet normal -0.145332 0.0254119 0.989057
    outer loop
      vertex 67.9021 160.774 10.4512
      vertex -59.4165 162.846 -8.31018
      vertex -59.3735 162.382 -8.29194
    endloop
  endfacet
  facet normal -0.00559403 -0.999984 -0.000786211
    outer loop
      vertex -63.9306 -162.942 -19.0831
      vertex -61.394 -162.964 -9.1496
      vertex -65.1053 -162.942 -10.7249
    endloop
  endfacet
  facet normal -0.0057159 -0.999983 -0.00075509
    outer loop
      vertex -61.394 -162.964 -9.1496
      vertex -63.9306 -162.942 -19.0831
      vertex 10.7845 -163.377 -8.58261
    endloop
  endfacet
  facet normal -0.983052 -0.120502 -0.13816
    outer loop
      vertex -70.6676 -156.915 -20.03
      vertex -71.8101 -155 -13.571
      vertex -70.8978 -155 -20.0623
    endloop
  endfacet
  facet normal -0.983053 -0.120495 -0.138162
    outer loop
      vertex -71.8101 -155 -13.571
      vertex -70.6676 -156.915 -20.03
      vertex -71.5886 -156.915 -13.4769
    endloop
  endfacet
  facet normal 0.435499 -0.88205 0.179802
    outer loop
      vertex 69.6989 -162.079 -0.30274
      vertex 67.9021 -160.774 10.4512
      vertex 66.2206 -161.667 10.1432
    endloop
  endfacet
  facet normal 0.435424 -0.882088 0.179794
    outer loop
      vertex 67.9021 -160.774 10.4512
      vertex 69.6989 -162.079 -0.30274
      vertex 70.3633 -161.732 -0.209363
    endloop
  endfacet
  facet normal -0.00610463 -0.999037 0.0434417
    outer loop
      vertex -60.7778 -162.957 -8.88804
      vertex 12.6253 -163.381 -8.3239
      vertex 13.4221 -163.381 -8.21193
    endloop
  endfacet
  facet normal -0.00609735 -0.999079 0.042462
    outer loop
      vertex 12.6253 -163.381 -8.3239
      vertex -60.7778 -162.957 -8.88804
      vertex -61.3643 -162.964 -9.13696
    endloop
  endfacet
  facet normal 0.79078 -0.56586 0.233388
    outer loop
      vertex 72.8873 -158.874 0.145366
      vertex 70.4323 -157.919 10.779
      vertex 72.2229 -159.841 0.0519935
    endloop
  endfacet
  facet normal -0.983052 0.120502 -0.13816
    outer loop
      vertex -71.8101 155 -13.571
      vertex -70.6676 156.915 -20.03
      vertex -70.8978 155 -20.0623
    endloop
  endfacet
  facet normal -0.983053 0.120495 -0.138162
    outer loop
      vertex -70.6676 156.915 -20.03
      vertex -71.8101 155 -13.571
      vertex -71.5886 156.915 -13.4769
    endloop
  endfacet
  facet normal -0.145548 0.00245332 0.989348
    outer loop
      vertex 69.3337 159.5 10.6673
      vertex -59.2786 158.785 -8.25167
      vertex -59.2641 157.149 -8.24548
    endloop
  endfacet
  facet normal -0.145556 0.0042527 0.989341
    outer loop
      vertex 67.9021 160.774 10.4512
      vertex -59.2786 158.785 -8.25167
      vertex 69.3337 159.5 10.6673
    endloop
  endfacet
  facet normal -0.145555 0.00414613 0.989341
    outer loop
      vertex -59.2786 158.785 -8.25167
      vertex 67.9021 160.774 10.4512
      vertex -59.2804 158.896 -8.2524
    endloop
  endfacet
  facet normal -0.000997577 0 1
    outer loop
      vertex 70.4323 157.919 10.779
      vertex 71.134 -156.123 10.7797
      vertex 71.134 156.123 10.7797
    endloop
  endfacet
  facet normal -0.000997577 0 1
    outer loop
      vertex 71.134 -156.123 10.7797
      vertex 70.4323 157.919 10.779
      vertex 70.4323 -157.919 10.779
    endloop
  endfacet
  facet normal -0.814941 0.568113 -0.114536
    outer loop
      vertex -70.9369 158.718 -13.2003
      vertex -68.9055 160.305 -19.7823
      vertex -69.9904 158.718 -19.9348
    endloop
  endfacet
  facet normal -0.814929 0.568132 -0.114528
    outer loop
      vertex -68.9055 160.305 -19.7823
      vertex -70.9369 158.718 -13.2003
      vertex -69.8928 160.305 -12.7571
    endloop
  endfacet
  facet normal -0.145566 0.00729274 0.989322
    outer loop
      vertex 67.9021 160.774 10.4512
      vertex -59.3353 161.527 -8.27574
      vertex -59.3038 160.342 -8.26237
    endloop
  endfacet
  facet normal 0.435424 0.882088 0.179794
    outer loop
      vertex 69.6989 162.079 -0.30274
      vertex 67.9021 160.774 10.4512
      vertex 70.3633 161.732 -0.209363
    endloop
  endfacet
  facet normal 0.435499 0.88205 0.179802
    outer loop
      vertex 67.9021 160.774 10.4512
      vertex 69.6989 162.079 -0.30274
      vertex 66.2206 161.667 10.1432
    endloop
  endfacet
  facet normal -0.0057159 0.999983 -0.00075509
    outer loop
      vertex -63.9306 162.942 -19.0831
      vertex -61.394 162.964 -9.1496
      vertex 10.7845 163.377 -8.58261
    endloop
  endfacet
  facet normal -0.00559403 0.999984 -0.000786211
    outer loop
      vertex -61.394 162.964 -9.1496
      vertex -63.9306 162.942 -19.0831
      vertex -65.1053 162.942 -10.7249
    endloop
  endfacet
  facet normal -0.145518 -0.000766726 0.989355
    outer loop
      vertex -59.2591 -155.414 -8.2434
      vertex -59.2641 -157.149 -8.24548
      vertex 69.3337 -159.5 10.6673
    endloop
  endfacet
  facet normal -0.138605 -0.244579 0.959672
    outer loop
      vertex -59.4262 -162.885 -8.31432
      vertex 64.387 -162.127 9.76114
      vertex 66.2206 -161.667 10.1432
    endloop
  endfacet
  facet normal -0.138498 -0.247089 0.959044
    outer loop
      vertex 64.387 -162.127 9.76114
      vertex -59.4262 -162.885 -8.31432
      vertex -59.4446 -162.905 -8.32213
    endloop
  endfacet
  facet normal -0.145559 -0.00446586 0.989339
    outer loop
      vertex -59.2804 -158.896 -8.2524
      vertex -59.3038 -160.342 -8.26237
      vertex 67.9021 -160.774 10.4512
    endloop
  endfacet
  facet normal -0.460111 -0.885503 -0.0646682
    outer loop
      vertex -68.5171 -161.584 -12.1732
      vertex -65.7849 -162.48 -19.3437
      vertex -66.8898 -162.48 -11.4824
    endloop
  endfacet
  facet normal -0.460087 -0.885516 -0.0646576
    outer loop
      vertex -65.7849 -162.48 -19.3437
      vertex -68.5171 -161.584 -12.1732
      vertex -67.476 -161.584 -19.5814
    endloop
  endfacet
  facet normal -0.145559 0.00446586 0.989339
    outer loop
      vertex 67.9021 160.774 10.4512
      vertex -59.3038 160.342 -8.26237
      vertex -59.2804 158.896 -8.2524
    endloop
  endfacet
  facet normal -0.00592744 0.999625 0.02672
    outer loop
      vertex 10.7845 163.377 -8.58261
      vertex -61.3643 162.964 -9.13696
      vertex 12.6253 163.381 -8.3239
    endloop
  endfacet
  facet normal -0.00582888 0.999889 0.013696
    outer loop
      vertex -61.3643 162.964 -9.13696
      vertex 10.7845 163.377 -8.58261
      vertex -61.394 162.964 -9.1496
    endloop
  endfacet
  facet normal -0.00649782 0.996106 0.0879248
    outer loop
      vertex 13.4221 163.381 -8.21193
      vertex 64.387 162.127 9.76114
      vertex 66.8044 163.067 -0.709537
    endloop
  endfacet
  facet normal -0.00649139 0.996108 0.0879066
    outer loop
      vertex 13.4221 163.381 -8.21193
      vertex -59.4811 162.917 -8.33762
      vertex 64.387 162.127 9.76114
    endloop
  endfacet
  facet normal -0.00649113 0.996127 0.0876824
    outer loop
      vertex -59.4811 162.917 -8.33762
      vertex 13.4221 163.381 -8.21193
      vertex -60.7778 162.957 -8.88804
    endloop
  endfacet
  facet normal -0.237207 -0.970887 -0.0333382
    outer loop
      vertex -66.8898 -162.48 -11.4824
      vertex -63.9306 -162.942 -19.0831
      vertex -65.1053 -162.942 -10.7249
    endloop
  endfacet
  facet normal -0.237211 -0.970886 -0.0333399
    outer loop
      vertex -63.9306 -162.942 -19.0831
      vertex -66.8898 -162.48 -11.4824
      vertex -65.7849 -162.48 -19.3437
    endloop
  endfacet
  facet normal -0.145566 -0.00729274 0.989322
    outer loop
      vertex -59.3038 -160.342 -8.26237
      vertex -59.3353 -161.527 -8.27574
      vertex 67.9021 -160.774 10.4512
    endloop
  endfacet
  facet normal -0.656701 -0.748483 -0.0922884
    outer loop
      vertex -69.8928 -160.305 -12.7571
      vertex -67.476 -161.584 -19.5814
      vertex -68.5171 -161.584 -12.1732
    endloop
  endfacet
  facet normal -0.656706 -0.748478 -0.0922915
    outer loop
      vertex -67.476 -161.584 -19.5814
      vertex -69.8928 -160.305 -12.7571
      vertex -68.9055 -160.305 -19.7823
    endloop
  endfacet
  facet normal -0.144345 -0.0686706 0.987142
    outer loop
      vertex -59.4165 -162.846 -8.31018
      vertex 66.2206 -161.667 10.1432
      vertex 67.9021 -160.774 10.4512
    endloop
  endfacet
  facet normal -0.144341 -0.0688871 0.987127
    outer loop
      vertex 66.2206 -161.667 10.1432
      vertex -59.4165 -162.846 -8.31018
      vertex -59.4262 -162.885 -8.31432
    endloop
  endfacet
  facet normal 0.631808 -0.745329 0.212844
    outer loop
      vertex 71.2396 -160.954 -0.0862087
      vertex 67.9021 -160.774 10.4512
      vertex 70.3633 -161.732 -0.209363
    endloop
  endfacet
  facet normal 0.631457 -0.745657 0.212738
    outer loop
      vertex 71.2396 -160.954 -0.0862087
      vertex 69.3337 -159.5 10.6673
      vertex 67.9021 -160.774 10.4512
    endloop
  endfacet
  facet normal 0.631055 -0.746005 0.212714
    outer loop
      vertex 69.3337 -159.5 10.6673
      vertex 71.2396 -160.954 -0.0862087
      vertex 71.7983 -160.459 -0.0076892
    endloop
  endfacet
  facet normal -0.00649782 -0.996106 0.0879248
    outer loop
      vertex 64.387 -162.127 9.76114
      vertex 13.4221 -163.381 -8.21193
      vertex 66.8044 -163.067 -0.709537
    endloop
  endfacet
  facet normal -0.00649139 -0.996108 0.0879066
    outer loop
      vertex -59.4811 -162.917 -8.33762
      vertex 13.4221 -163.381 -8.21193
      vertex 64.387 -162.127 9.76114
    endloop
  endfacet
  facet normal -0.00649113 -0.996127 0.0876824
    outer loop
      vertex 13.4221 -163.381 -8.21193
      vertex -59.4811 -162.917 -8.33762
      vertex -60.7778 -162.957 -8.88804
    endloop
  endfacet
  facet normal -0.105843 -0.649739 0.752753
    outer loop
      vertex -59.4446 -162.905 -8.32213
      vertex -59.4811 -162.917 -8.33762
      vertex 64.387 -162.127 9.76114
    endloop
  endfacet
  facet normal -0.814941 -0.568113 -0.114536
    outer loop
      vertex -68.9055 -160.305 -19.7823
      vertex -70.9369 -158.718 -13.2003
      vertex -69.9904 -158.718 -19.9348
    endloop
  endfacet
  facet normal -0.814929 -0.568132 -0.114528
    outer loop
      vertex -70.9369 -158.718 -13.2003
      vertex -68.9055 -160.305 -19.7823
      vertex -69.8928 -160.305 -12.7571
    endloop
  endfacet
  facet normal -0.925904 -0.354637 -0.13013
    outer loop
      vertex -69.9904 -158.718 -19.9348
      vertex -71.5886 -156.915 -13.4769
      vertex -70.6676 -156.915 -20.03
    endloop
  endfacet
  facet normal -0.925905 -0.354635 -0.130131
    outer loop
      vertex -71.5886 -156.915 -13.4769
      vertex -69.9904 -158.718 -19.9348
      vertex -70.9369 -158.718 -13.2003
    endloop
  endfacet
  facet normal -0.656701 0.748483 -0.0922884
    outer loop
      vertex -67.476 161.584 -19.5814
      vertex -69.8928 160.305 -12.7571
      vertex -68.5171 161.584 -12.1732
    endloop
  endfacet
  facet normal -0.656706 0.748478 -0.0922915
    outer loop
      vertex -69.8928 160.305 -12.7571
      vertex -67.476 161.584 -19.5814
      vertex -68.9055 160.305 -19.7823
    endloop
  endfacet
  facet normal -0.145531 0.0122421 0.989278
    outer loop
      vertex 67.9021 160.774 10.4512
      vertex -59.3735 162.382 -8.29194
      vertex -59.3353 161.527 -8.27574
    endloop
  endfacet
  facet normal 0.435067 0.88229 0.179668
    outer loop
      vertex 68.6658 162.618 -0.447933
      vertex 66.2206 161.667 10.1432
      vertex 69.6989 162.079 -0.30274
    endloop
  endfacet
  facet normal -0.00610463 0.999037 0.0434417
    outer loop
      vertex 12.6253 163.381 -8.3239
      vertex -60.7778 162.957 -8.88804
      vertex 13.4221 163.381 -8.21193
    endloop
  endfacet
  facet normal -0.00609735 0.999079 0.042462
    outer loop
      vertex -60.7778 162.957 -8.88804
      vertex 12.6253 163.381 -8.3239
      vertex -61.3643 162.964 -9.13696
    endloop
  endfacet
  facet normal -0.105843 0.649739 0.752753
    outer loop
      vertex 64.387 162.127 9.76114
      vertex -59.4811 162.917 -8.33762
      vertex -59.4446 162.905 -8.32213
    endloop
  endfacet
  facet normal 0.21425 -0.967223 0.136297
    outer loop
      vertex 66.8044 -163.067 -0.709537
      vertex 66.2206 -161.667 10.1432
      vertex 64.387 -162.127 9.76114
    endloop
  endfacet
  facet normal 0.21416 -0.967243 0.136294
    outer loop
      vertex 66.2206 -161.667 10.1432
      vertex 66.8044 -163.067 -0.709537
      vertex 68.6658 -162.618 -0.447933
    endloop
  endfacet
  facet normal 0.435067 -0.88229 0.179668
    outer loop
      vertex 69.6989 -162.079 -0.30274
      vertex 66.2206 -161.667 10.1432
      vertex 68.6658 -162.618 -0.447933
    endloop
  endfacet
  facet normal -0.237207 0.970887 -0.0333382
    outer loop
      vertex -63.9306 162.942 -19.0831
      vertex -66.8898 162.48 -11.4824
      vertex -65.1053 162.942 -10.7249
    endloop
  endfacet
  facet normal -0.237211 0.970886 -0.0333399
    outer loop
      vertex -66.8898 162.48 -11.4824
      vertex -63.9306 162.942 -19.0831
      vertex -65.7849 162.48 -19.3437
    endloop
  endfacet
  facet normal -0.390737 -2.25019e-05 0.920502
    outer loop
      vertex -69.8928 160.305 -12.7571
      vertex -59.2591 155.414 -8.2434
      vertex -59.2641 157.149 -8.24548
    endloop
  endfacet
  facet normal -0.390732 0 0.920504
    outer loop
      vertex -59.2591 155.414 -8.2434
      vertex -71.8101 155 -13.571
      vertex -59.2591 -155.414 -8.2434
    endloop
  endfacet
  facet normal -0.390711 1.99646e-05 0.920513
    outer loop
      vertex -65.1053 162.942 -10.7249
      vertex -59.2641 157.149 -8.24548
      vertex -59.2786 158.785 -8.25167
    endloop
  endfacet
  facet normal -0.390732 0 0.920504
    outer loop
      vertex -71.8101 -155 -13.571
      vertex -59.2591 -155.414 -8.2434
      vertex -71.8101 155 -13.571
    endloop
  endfacet
  facet normal -0.390896 -0.000285545 0.920435
    outer loop
      vertex -65.1053 162.942 -10.7249
      vertex -59.2786 158.785 -8.25167
      vertex -59.2804 158.896 -8.2524
    endloop
  endfacet
  facet normal -0.390731 3.78952e-05 0.920505
    outer loop
      vertex -71.5886 -156.915 -13.4769
      vertex -59.2591 -155.414 -8.2434
      vertex -71.8101 -155 -13.571
    endloop
  endfacet
  facet normal -0.390703 2.42829e-05 0.920517
    outer loop
      vertex -61.394 162.964 -9.1496
      vertex -59.2804 158.896 -8.2524
      vertex -59.3038 160.342 -8.26237
    endloop
  endfacet
  facet normal -0.390726 -1.3178e-05 0.920507
    outer loop
      vertex -70.9369 -158.718 -13.2003
      vertex -59.2591 -155.414 -8.2434
      vertex -71.5886 -156.915 -13.4769
    endloop
  endfacet
  facet normal -0.390716 -2.73137e-07 0.920511
    outer loop
      vertex -61.3643 162.964 -9.13696
      vertex -59.3038 160.342 -8.26237
      vertex -59.3353 161.527 -8.27574
    endloop
  endfacet
  facet normal -0.39073 4.2574e-06 0.920505
    outer loop
      vertex -69.8928 -160.305 -12.7571
      vertex -59.2591 -155.414 -8.2434
      vertex -70.9369 -158.718 -13.2003
    endloop
  endfacet
  facet normal -0.390742 -1.66808e-05 0.9205
    outer loop
      vertex -60.7778 162.957 -8.88804
      vertex -59.3353 161.527 -8.27574
      vertex -59.3735 162.382 -8.29194
    endloop
  endfacet
  facet normal -0.390737 2.25019e-05 0.920502
    outer loop
      vertex -59.2591 -155.414 -8.2434
      vertex -69.8928 -160.305 -12.7571
      vertex -59.2641 -157.149 -8.24548
    endloop
  endfacet
  facet normal -0.391011 -5.52476e-05 0.920386
    outer loop
      vertex -59.4811 162.917 -8.33762
      vertex -59.3735 162.382 -8.29194
      vertex -59.4165 162.846 -8.31018
    endloop
  endfacet
  facet normal -0.390725 -2.75962e-05 0.920508
    outer loop
      vertex -68.5171 -161.584 -12.1732
      vertex -59.2641 -157.149 -8.24548
      vertex -69.8928 -160.305 -12.7571
    endloop
  endfacet
  facet normal -0.390362 0.000641702 0.920661
    outer loop
      vertex -59.4811 162.917 -8.33762
      vertex -59.4165 162.846 -8.31018
      vertex -59.4262 162.885 -8.31432
    endloop
  endfacet
  facet normal -0.390745 2.33656e-05 0.920499
    outer loop
      vertex -66.8898 -162.48 -11.4824
      vertex -59.2641 -157.149 -8.24548
      vertex -68.5171 -161.584 -12.1732
    endloop
  endfacet
  facet normal -0.390635 8.85835e-05 0.920546
    outer loop
      vertex -59.4811 162.917 -8.33762
      vertex -59.4262 162.885 -8.31432
      vertex -59.4446 162.905 -8.32213
    endloop
  endfacet
  facet normal -0.390716 2.73137e-07 0.920511
    outer loop
      vertex -59.3038 -160.342 -8.26237
      vertex -61.3643 -162.964 -9.13696
      vertex -59.3353 -161.527 -8.27574
    endloop
  endfacet
  facet normal -0.390733 1.07668e-05 0.920504
    outer loop
      vertex -59.3735 162.382 -8.29194
      vertex -59.4811 162.917 -8.33762
      vertex -60.7778 162.957 -8.88804
    endloop
  endfacet
  facet normal -0.390733 -1.07668e-05 0.920504
    outer loop
      vertex -59.4811 -162.917 -8.33762
      vertex -59.3735 -162.382 -8.29194
      vertex -60.7778 -162.957 -8.88804
    endloop
  endfacet
  facet normal -0.390685 5.20477e-05 0.920525
    outer loop
      vertex -59.3353 161.527 -8.27574
      vertex -60.7778 162.957 -8.88804
      vertex -61.3643 162.964 -9.13696
    endloop
  endfacet
  facet normal -0.391011 5.52476e-05 0.920386
    outer loop
      vertex -59.3735 -162.382 -8.29194
      vertex -59.4811 -162.917 -8.33762
      vertex -59.4165 -162.846 -8.31018
    endloop
  endfacet
  facet normal -0.3916 -0.00081998 0.920135
    outer loop
      vertex -59.3038 160.342 -8.26237
      vertex -61.3643 162.964 -9.13696
      vertex -61.394 162.964 -9.1496
    endloop
  endfacet
  facet normal -0.390362 -0.000641702 0.920661
    outer loop
      vertex -59.4165 -162.846 -8.31018
      vertex -59.4811 -162.917 -8.33762
      vertex -59.4262 -162.885 -8.31432
    endloop
  endfacet
  facet normal -0.39072 1.36325e-05 0.92051
    outer loop
      vertex -59.2804 158.896 -8.2524
      vertex -61.394 162.964 -9.1496
      vertex -65.1053 162.942 -10.7249
    endloop
  endfacet
  facet normal -0.390635 -8.85835e-05 0.920546
    outer loop
      vertex -59.4262 -162.885 -8.31432
      vertex -59.4811 -162.917 -8.33762
      vertex -59.4446 -162.905 -8.32213
    endloop
  endfacet
  facet normal -0.390739 -1.29931e-05 0.920501
    outer loop
      vertex -59.2641 157.149 -8.24548
      vertex -65.1053 162.942 -10.7249
      vertex -66.8898 162.48 -11.4824
    endloop
  endfacet
  facet normal -0.390742 1.66808e-05 0.9205
    outer loop
      vertex -59.3353 -161.527 -8.27574
      vertex -60.7778 -162.957 -8.88804
      vertex -59.3735 -162.382 -8.29194
    endloop
  endfacet
  facet normal -0.390745 -2.33656e-05 0.920499
    outer loop
      vertex -59.2641 157.149 -8.24548
      vertex -66.8898 162.48 -11.4824
      vertex -68.5171 161.584 -12.1732
    endloop
  endfacet
  facet normal -0.390685 -5.20477e-05 0.920525
    outer loop
      vertex -60.7778 -162.957 -8.88804
      vertex -59.3353 -161.527 -8.27574
      vertex -61.3643 -162.964 -9.13696
    endloop
  endfacet
  facet normal -0.390725 2.75962e-05 0.920508
    outer loop
      vertex -59.2641 157.149 -8.24548
      vertex -68.5171 161.584 -12.1732
      vertex -69.8928 160.305 -12.7571
    endloop
  endfacet
  facet normal -0.3916 0.00081998 0.920135
    outer loop
      vertex -61.3643 -162.964 -9.13696
      vertex -59.3038 -160.342 -8.26237
      vertex -61.394 -162.964 -9.1496
    endloop
  endfacet
  facet normal -0.39073 -4.2574e-06 0.920505
    outer loop
      vertex -59.2591 155.414 -8.2434
      vertex -69.8928 160.305 -12.7571
      vertex -70.9369 158.718 -13.2003
    endloop
  endfacet
  facet normal -0.390703 -2.42829e-05 0.920517
    outer loop
      vertex -59.2804 -158.896 -8.2524
      vertex -61.394 -162.964 -9.1496
      vertex -59.3038 -160.342 -8.26237
    endloop
  endfacet
  facet normal -0.390726 1.3178e-05 0.920507
    outer loop
      vertex -59.2591 155.414 -8.2434
      vertex -70.9369 158.718 -13.2003
      vertex -71.5886 156.915 -13.4769
    endloop
  endfacet
  facet normal -0.390711 -1.99646e-05 0.920513
    outer loop
      vertex -59.2641 -157.149 -8.24548
      vertex -65.1053 -162.942 -10.7249
      vertex -59.2786 -158.785 -8.25167
    endloop
  endfacet
  facet normal -0.390731 -3.78952e-05 0.920505
    outer loop
      vertex -59.2591 155.414 -8.2434
      vertex -71.5886 156.915 -13.4769
      vertex -71.8101 155 -13.571
    endloop
  endfacet
  facet normal -0.390896 0.000285545 0.920435
    outer loop
      vertex -59.2786 -158.785 -8.25167
      vertex -65.1053 -162.942 -10.7249
      vertex -59.2804 -158.896 -8.2524
    endloop
  endfacet
  facet normal -0.39072 -1.36325e-05 0.92051
    outer loop
      vertex -61.394 -162.964 -9.1496
      vertex -59.2804 -158.896 -8.2524
      vertex -65.1053 -162.942 -10.7249
    endloop
  endfacet
  facet normal -0.390739 1.29931e-05 0.920501
    outer loop
      vertex -65.1053 -162.942 -10.7249
      vertex -59.2641 -157.149 -8.24548
      vertex -66.8898 -162.48 -11.4824
    endloop
  endfacet
  facet normal 0.139231 0 -0.99026
    outer loop
      vertex 73.7982 -155.149 0.273385
      vertex 73.7116 -155.061 0.261209
      vertex 73.7982 155.149 0.273385
    endloop
  endfacet
  facet normal 0.139216 -1.49916e-05 -0.990262
    outer loop
      vertex 73.7982 -155.149 0.273385
      vertex 73.6071 -155.929 0.246531
      vertex 73.7116 -155.061 0.261209
    endloop
  endfacet
  facet normal 0.139148 2.09722e-06 -0.990272
    outer loop
      vertex 73.5671 -157.069 0.240908
      vertex 73.6071 -155.929 0.246531
      vertex 73.7982 -155.149 0.273385
    endloop
  endfacet
  facet normal 0.13923 -8.5424e-07 -0.99026
    outer loop
      vertex 73.5671 -157.069 0.240908
      vertex 73.4805 -156.981 0.228732
      vertex 73.6071 -155.929 0.246531
    endloop
  endfacet
  facet normal 0.139217 -1.43646e-05 -0.990262
    outer loop
      vertex 73.5671 -157.069 0.240908
      vertex 73.1022 -157.986 0.175563
      vertex 73.4805 -156.981 0.228732
    endloop
  endfacet
  facet normal 0.139225 -1.86112e-05 -0.990261
    outer loop
      vertex 72.8873 -158.874 0.145366
      vertex 73.1022 -157.986 0.175563
      vertex 73.5671 -157.069 0.240908
    endloop
  endfacet
  facet normal 0.139215 -1.61461e-05 -0.990262
    outer loop
      vertex 72.8873 -158.874 0.145366
      vertex 72.8007 -158.786 0.13319
      vertex 73.1022 -157.986 0.175563
    endloop
  endfacet
  facet normal 0.139203 -2.8114e-05 -0.990264
    outer loop
      vertex 72.8873 -158.874 0.145366
      vertex 72.3219 -159.483 0.0659041
      vertex 72.8007 -158.786 0.13319
    endloop
  endfacet
  facet normal 0.139186 -1.16699e-05 -0.990266
    outer loop
      vertex 72.2229 -159.841 0.0519935
      vertex 72.3219 -159.483 0.0659041
      vertex 72.8873 -158.874 0.145366
    endloop
  endfacet
  facet normal 0.139124 4.91954e-05 -0.990275
    outer loop
      vertex 71.7116 -160.371 -0.0198653
      vertex 72.2229 -159.841 0.0519935
      vertex 71.7983 -160.459 -0.0076892
    endloop
  endfacet
  facet normal 0.139185 -1.16141e-05 -0.990266
    outer loop
      vertex 72.2229 -159.841 0.0519935
      vertex 71.7116 -160.371 -0.0198653
      vertex 72.3219 -159.483 0.0659041
    endloop
  endfacet
  facet normal 0.139127 5.21966e-05 -0.990275
    outer loop
      vertex 71.2396 -160.954 -0.0862087
      vertex 71.7116 -160.371 -0.0198653
      vertex 71.7983 -160.459 -0.0076892
    endloop
  endfacet
  facet normal 0.139148 3.47035e-05 -0.990272
    outer loop
      vertex 71.2396 -160.954 -0.0862087
      vertex 70.9061 -161.086 -0.133075
      vertex 71.7116 -160.371 -0.0198653
    endloop
  endfacet
  facet normal 0.139153 2.08008e-05 -0.990271
    outer loop
      vertex 70.3633 -161.732 -0.209363
      vertex 70.9061 -161.086 -0.133075
      vertex 71.2396 -160.954 -0.0862087
    endloop
  endfacet
  facet normal 0.139121 4.8064e-05 -0.990275
    outer loop
      vertex 70.3633 -161.732 -0.209363
      vertex 70.2766 -161.644 -0.221539
      vertex 70.9061 -161.086 -0.133075
    endloop
  endfacet
  facet normal 0.139141 6.76735e-05 -0.990273
    outer loop
      vertex 69.6989 -162.079 -0.30274
      vertex 70.2766 -161.644 -0.221539
      vertex 70.3633 -161.732 -0.209363
    endloop
  endfacet
  facet normal 0.139168 3.16149e-05 -0.990269
    outer loop
      vertex 69.6989 -162.079 -0.30274
      vertex 69.3287 -162.139 -0.354768
      vertex 70.2766 -161.644 -0.221539
    endloop
  endfacet
  facet normal 0.139172 2.31671e-06 -0.990268
    outer loop
      vertex 68.6658 -162.618 -0.447933
      vertex 69.3287 -162.139 -0.354768
      vertex 69.6989 -162.079 -0.30274
    endloop
  endfacet
  facet normal 0.139132 5.88535e-05 -0.990274
    outer loop
      vertex 68.6658 -162.618 -0.447933
      vertex 68.5791 -162.53 -0.460109
      vertex 69.3287 -162.139 -0.354768
    endloop
  endfacet
  facet normal 0.139159 8.55699e-05 -0.99027
    outer loop
      vertex 68.6658 -162.618 -0.447933
      vertex 67.7471 -162.731 -0.577044
      vertex 68.5791 -162.53 -0.460109
    endloop
  endfacet
  facet normal 0.139164 4.10464e-05 -0.990269
    outer loop
      vertex 66.8044 -163.067 -0.709537
      vertex 67.7471 -162.731 -0.577044
      vertex 68.6658 -162.618 -0.447933
    endloop
  endfacet
  facet normal 0.139151 7.79919e-05 -0.990271
    outer loop
      vertex 66.8044 -163.067 -0.709537
      vertex 66.7177 -162.979 -0.721713
      vertex 67.7471 -162.731 -0.577044
    endloop
  endfacet
  facet normal 0.139173 9.94673e-05 -0.990268
    outer loop
      vertex 13.4221 -163.381 -8.21193
      vertex 66.7177 -162.979 -0.721713
      vertex 66.8044 -163.067 -0.709537
    endloop
  endfacet
  facet normal 0.139157 -0.00123541 -0.99027
    outer loop
      vertex 6.21723 -163.294 -9.2245
      vertex 13.4221 -163.381 -8.21193
      vertex 12.6253 -163.381 -8.3239
    endloop
  endfacet
  facet normal 0.139174 5.38114e-05 -0.990268
    outer loop
      vertex 6.21723 -163.294 -9.2245
      vertex 12.6253 -163.381 -8.3239
      vertex 10.7845 -163.377 -8.58261
    endloop
  endfacet
  facet normal 0.139173 6.75769e-05 -0.990268
    outer loop
      vertex 13.4221 -163.381 -8.21193
      vertex 6.21723 -163.294 -9.2245
      vertex 66.7177 -162.979 -0.721713
    endloop
  endfacet
  facet normal 0.139173 -1.45162e-05 -0.990268
    outer loop
      vertex 10.7845 -163.377 -8.58261
      vertex 5.31486 -163.294 -9.35132
      vertex 6.21723 -163.294 -9.2245
    endloop
  endfacet
  facet normal 0.139172 -8.23459e-05 -0.990268
    outer loop
      vertex 10.7845 -163.377 -8.58261
      vertex 3.56319 -163.29 -9.5975
      vertex 5.31486 -163.294 -9.35132
    endloop
  endfacet
  facet normal 0.139172 -9.26891e-05 -0.990268
    outer loop
      vertex 3.56319 -163.29 -9.5975
      vertex 10.7845 -163.377 -8.58261
      vertex -63.9306 -162.942 -19.0831
    endloop
  endfacet
  facet normal 0.139231 0 -0.99026
    outer loop
      vertex 73.7116 155.061 0.261209
      vertex 73.7982 155.149 0.273385
      vertex 73.7116 -155.061 0.261209
    endloop
  endfacet
  facet normal 0.139216 1.49916e-05 -0.990262
    outer loop
      vertex 73.6071 155.929 0.246531
      vertex 73.7982 155.149 0.273385
      vertex 73.7116 155.061 0.261209
    endloop
  endfacet
  facet normal 0.139148 -2.09722e-06 -0.990272
    outer loop
      vertex 73.6071 155.929 0.246531
      vertex 73.5671 157.069 0.240908
      vertex 73.7982 155.149 0.273385
    endloop
  endfacet
  facet normal 0.13923 8.5424e-07 -0.99026
    outer loop
      vertex 73.4805 156.981 0.228732
      vertex 73.5671 157.069 0.240908
      vertex 73.6071 155.929 0.246531
    endloop
  endfacet
  facet normal 0.139217 1.43646e-05 -0.990262
    outer loop
      vertex 73.1022 157.986 0.175563
      vertex 73.5671 157.069 0.240908
      vertex 73.4805 156.981 0.228732
    endloop
  endfacet
  facet normal 0.139225 1.86112e-05 -0.990261
    outer loop
      vertex 73.1022 157.986 0.175563
      vertex 72.8873 158.874 0.145366
      vertex 73.5671 157.069 0.240908
    endloop
  endfacet
  facet normal 0.139215 1.61461e-05 -0.990262
    outer loop
      vertex 72.8007 158.786 0.13319
      vertex 72.8873 158.874 0.145366
      vertex 73.1022 157.986 0.175563
    endloop
  endfacet
  facet normal 0.139203 2.8114e-05 -0.990264
    outer loop
      vertex 72.3219 159.483 0.0659041
      vertex 72.8873 158.874 0.145366
      vertex 72.8007 158.786 0.13319
    endloop
  endfacet
  facet normal 0.139186 1.16699e-05 -0.990266
    outer loop
      vertex 72.3219 159.483 0.0659041
      vertex 72.2229 159.841 0.0519935
      vertex 72.8873 158.874 0.145366
    endloop
  endfacet
  facet normal 0.139185 1.16141e-05 -0.990266
    outer loop
      vertex 71.7116 160.371 -0.0198653
      vertex 72.2229 159.841 0.0519935
      vertex 72.3219 159.483 0.0659041
    endloop
  endfacet
  facet normal 0.139124 -4.91954e-05 -0.990275
    outer loop
      vertex 72.2229 159.841 0.0519935
      vertex 71.7116 160.371 -0.0198653
      vertex 71.7983 160.459 -0.0076892
    endloop
  endfacet
  facet normal 0.139127 -5.21966e-05 -0.990275
    outer loop
      vertex 71.7116 160.371 -0.0198653
      vertex 71.2396 160.954 -0.0862087
      vertex 71.7983 160.459 -0.0076892
    endloop
  endfacet
  facet normal 0.139148 -3.47035e-05 -0.990272
    outer loop
      vertex 70.9061 161.086 -0.133075
      vertex 71.2396 160.954 -0.0862087
      vertex 71.7116 160.371 -0.0198653
    endloop
  endfacet
  facet normal 0.139153 -2.08008e-05 -0.990271
    outer loop
      vertex 70.9061 161.086 -0.133075
      vertex 70.3633 161.732 -0.209363
      vertex 71.2396 160.954 -0.0862087
    endloop
  endfacet
  facet normal 0.139121 -4.8064e-05 -0.990275
    outer loop
      vertex 70.2766 161.644 -0.221539
      vertex 70.3633 161.732 -0.209363
      vertex 70.9061 161.086 -0.133075
    endloop
  endfacet
  facet normal 0.139141 -6.76735e-05 -0.990273
    outer loop
      vertex 70.2766 161.644 -0.221539
      vertex 69.6989 162.079 -0.30274
      vertex 70.3633 161.732 -0.209363
    endloop
  endfacet
  facet normal 0.139168 -3.16149e-05 -0.990269
    outer loop
      vertex 69.3287 162.139 -0.354768
      vertex 69.6989 162.079 -0.30274
      vertex 70.2766 161.644 -0.221539
    endloop
  endfacet
  facet normal 0.139172 -2.31671e-06 -0.990268
    outer loop
      vertex 69.3287 162.139 -0.354768
      vertex 68.6658 162.618 -0.447933
      vertex 69.6989 162.079 -0.30274
    endloop
  endfacet
  facet normal 0.139132 -5.88535e-05 -0.990274
    outer loop
      vertex 68.5791 162.53 -0.460109
      vertex 68.6658 162.618 -0.447933
      vertex 69.3287 162.139 -0.354768
    endloop
  endfacet
  facet normal 0.139159 -8.55699e-05 -0.99027
    outer loop
      vertex 67.7471 162.731 -0.577044
      vertex 68.6658 162.618 -0.447933
      vertex 68.5791 162.53 -0.460109
    endloop
  endfacet
  facet normal 0.139164 -4.10464e-05 -0.990269
    outer loop
      vertex 67.7471 162.731 -0.577044
      vertex 66.8044 163.067 -0.709537
      vertex 68.6658 162.618 -0.447933
    endloop
  endfacet
  facet normal 0.139151 -7.79919e-05 -0.990271
    outer loop
      vertex 66.7177 162.979 -0.721713
      vertex 66.8044 163.067 -0.709537
      vertex 67.7471 162.731 -0.577044
    endloop
  endfacet
  facet normal 0.139173 -9.94673e-05 -0.990268
    outer loop
      vertex 66.7177 162.979 -0.721713
      vertex 13.4221 163.381 -8.21193
      vertex 66.8044 163.067 -0.709537
    endloop
  endfacet
  facet normal 0.139173 -6.75769e-05 -0.990268
    outer loop
      vertex 6.21723 163.294 -9.2245
      vertex 13.4221 163.381 -8.21193
      vertex 66.7177 162.979 -0.721713
    endloop
  endfacet
  facet normal 0.139157 0.00123541 -0.99027
    outer loop
      vertex 13.4221 163.381 -8.21193
      vertex 6.21723 163.294 -9.2245
      vertex 12.6253 163.381 -8.3239
    endloop
  endfacet
  facet normal 0.139174 -5.38114e-05 -0.990268
    outer loop
      vertex 12.6253 163.381 -8.3239
      vertex 6.21723 163.294 -9.2245
      vertex 10.7845 163.377 -8.58261
    endloop
  endfacet
  facet normal 0.139173 1.45162e-05 -0.990268
    outer loop
      vertex 5.31486 163.294 -9.35132
      vertex 10.7845 163.377 -8.58261
      vertex 6.21723 163.294 -9.2245
    endloop
  endfacet
  facet normal 0.139172 8.23459e-05 -0.990268
    outer loop
      vertex 3.56319 163.29 -9.5975
      vertex 10.7845 163.377 -8.58261
      vertex 5.31486 163.294 -9.35132
    endloop
  endfacet
  facet normal 0.139172 9.26891e-05 -0.990268
    outer loop
      vertex 10.7845 163.377 -8.58261
      vertex 3.56319 163.29 -9.5975
      vertex -63.9306 162.942 -19.0831
    endloop
  endfacet
  facet normal -0.990266 0 -0.139185
    outer loop
      vertex 49.4041 -135 7.7365
      vertex 48.8175 135 11.91
      vertex 49.4041 135 7.7365
    endloop
  endfacet
  facet normal -0.990266 -0 -0.139185
    outer loop
      vertex 48.8175 135 11.91
      vertex 49.4041 -135 7.7365
      vertex 48.8175 -135 11.91
    endloop
  endfacet
  facet normal -0.139178 0 0.990267
    outer loop
      vertex 48.8175 135 11.91
      vertex 53.7689 -135 12.6059
      vertex 53.7689 135 12.6059
    endloop
  endfacet
  facet normal -0.139178 0 0.990267
    outer loop
      vertex 53.7689 -135 12.6059
      vertex 48.8175 135 11.91
      vertex 48.8175 -135 11.91
    endloop
  endfacet
  facet normal 0.990268 -0 0.139171
    outer loop
      vertex 53.7689 -135 12.6059
      vertex 54.351 135 8.46399
      vertex 53.7689 135 12.6059
    endloop
  endfacet
  facet normal 0.990268 0 0.139171
    outer loop
      vertex 54.351 135 8.46399
      vertex 53.7689 -135 12.6059
      vertex 54.351 -135 8.46399
    endloop
  endfacet
  facet normal 0 1 0
    outer loop
      vertex 54.351 135 8.46399
      vertex 48.8175 135 11.91
      vertex 53.7689 135 12.6059
    endloop
  endfacet
  facet normal 0 1 0
    outer loop
      vertex 48.8175 135 11.91
      vertex 54.351 135 8.46399
      vertex 49.4041 135 7.7365
    endloop
  endfacet
  facet normal 0 -1 0
    outer loop
      vertex 48.8175 -135 11.91
      vertex 54.351 -135 8.46399
      vertex 53.7689 -135 12.6059
    endloop
  endfacet
  facet normal -0 -1 0
    outer loop
      vertex 54.351 -135 8.46399
      vertex 48.8175 -135 11.91
      vertex 49.4041 -135 7.7365
    endloop
  endfacet
  facet normal 0.935423 0.353067 0.0180891
    outer loop
      vertex 73.4805 156.981 0.228732
      vertex 73.9058 156.286 -8.19923
      vertex 73.1022 157.986 0.175563
    endloop
  endfacet
  facet normal 0.934706 0.354972 0.0178958
    outer loop
      vertex 73.9058 156.286 -8.19923
      vertex 73.4805 156.981 0.228732
      vertex 73.9221 156.243 -8.19766
    endloop
  endfacet
  facet normal 0.991893 0.120117 0.0414647
    outer loop
      vertex 73.7116 155.061 0.261209
      vertex 73.9275 156.198 -8.19714
      vertex 73.6071 155.929 0.246531
    endloop
  endfacet
  facet normal 0.991898 0.12008 0.0414599
    outer loop
      vertex 73.9275 156.198 -8.19714
      vertex 73.7116 155.061 0.261209
      vertex 74.1537 154.322 -8.17536
    endloop
  endfacet
  facet normal 0.991899 0.120069 0.0414664
    outer loop
      vertex 73.6071 155.929 0.246531
      vertex 73.9221 156.243 -8.19766
      vertex 73.4805 156.981 0.228732
    endloop
  endfacet
  facet normal 0.991967 0.119515 0.0414483
    outer loop
      vertex 73.9221 156.243 -8.19766
      vertex 73.6071 155.929 0.246531
      vertex 73.9275 156.198 -8.19714
    endloop
  endfacet
  facet normal 0.99863 0 0.052331
    outer loop
      vertex 73.7116 155.061 0.261209
      vertex 74.1537 -154.322 -8.17536
      vertex 74.1537 154.322 -8.17536
    endloop
  endfacet
  facet normal 0.99863 0 0.052331
    outer loop
      vertex 74.1537 -154.322 -8.17536
      vertex 73.7116 155.061 0.261209
      vertex 73.7116 -155.061 0.261209
    endloop
  endfacet
  facet normal 0.824524 -0.565792 -0.00632009
    outer loop
      vertex 72.3219 -159.483 0.0659041
      vertex 73.2407 -158.051 -8.26327
      vertex 72.8007 -158.786 0.13319
    endloop
  endfacet
  facet normal 0.824441 -0.565912 -0.00634987
    outer loop
      vertex 73.2407 -158.051 -8.26327
      vertex 72.3219 -159.483 0.0659041
      vertex 72.1897 -159.581 -8.36447
    endloop
  endfacet
  facet normal 0.935282 0.353442 0.0180724
    outer loop
      vertex 73.1022 157.986 0.175563
      vertex 73.2407 158.051 -8.26327
      vertex 72.8007 158.786 0.13319
    endloop
  endfacet
  facet normal 0.935396 0.353139 0.018072
    outer loop
      vertex 73.2407 158.051 -8.26327
      vertex 73.1022 157.986 0.175563
      vertex 73.9058 156.286 -8.19923
    endloop
  endfacet
  facet normal 0.467661 0.882326 -0.0528674
    outer loop
      vertex 70.6421 160.954 -8.51349
      vertex 68.5791 162.53 -0.460109
      vertex 69.3287 162.139 -0.354768
    endloop
  endfacet
  facet normal 0.468091 0.882106 -0.0527142
    outer loop
      vertex 68.5791 162.53 -0.460109
      vertex 70.6421 160.954 -8.51349
      vertex 69.0094 161.811 -8.6707
    endloop
  endfacet
  facet normal -0.814952 -0.568097 -0.114541
    outer loop
      vertex -68.6049 -160.305 -21.9214
      vertex -69.9904 -158.718 -19.9348
      vertex -69.6964 -158.718 -22.0266
    endloop
  endfacet
  facet normal -0.814943 -0.568113 -0.114521
    outer loop
      vertex -69.9904 -158.718 -19.9348
      vertex -68.6049 -160.305 -21.9214
      vertex -68.9055 -160.305 -19.7823
    endloop
  endfacet
  facet normal -0.983054 0.120499 -0.138151
    outer loop
      vertex -70.8978 155 -20.0623
      vertex -70.3778 156.915 -22.0922
      vertex -70.6094 155 -22.1145
    endloop
  endfacet
  facet normal -0.983054 0.120502 -0.138148
    outer loop
      vertex -70.3778 156.915 -22.0922
      vertex -70.8978 155 -20.0623
      vertex -70.6676 156.915 -20.03
    endloop
  endfacet
  facet normal 0.823979 0.566583 -0.00643006
    outer loop
      vertex 71.7116 160.371 -0.0198653
      vertex 72.1897 159.581 -8.36447
      vertex 72.1491 159.64 -8.36838
    endloop
  endfacet
  facet normal 0.824398 0.565975 -0.00634846
    outer loop
      vertex 72.1897 159.581 -8.36447
      vertex 71.7116 160.371 -0.0198653
      vertex 72.3219 159.483 0.0659041
    endloop
  endfacet
  facet normal 0.991893 -0.120117 0.0414647
    outer loop
      vertex 73.9275 -156.198 -8.19714
      vertex 73.7116 -155.061 0.261209
      vertex 73.6071 -155.929 0.246531
    endloop
  endfacet
  facet normal 0.991898 -0.12008 0.0414599
    outer loop
      vertex 73.7116 -155.061 0.261209
      vertex 73.9275 -156.198 -8.19714
      vertex 74.1537 -154.322 -8.17536
    endloop
  endfacet
  facet normal 0.0061185 0.999033 -0.0435353
    outer loop
      vertex -27.15 163.119 -17.9298
      vertex 5.31486 163.294 -9.35132
      vertex 6.21723 163.294 -9.2245
    endloop
  endfacet
  facet normal 0.00616379 0.999025 -0.0437066
    outer loop
      vertex 5.31486 163.294 -9.35132
      vertex -27.15 163.119 -17.9298
      vertex -28.1719 163.121 -18.0282
    endloop
  endfacet
  facet normal -0.814952 0.568097 -0.114541
    outer loop
      vertex -69.9904 158.718 -19.9348
      vertex -68.6049 160.305 -21.9214
      vertex -69.6964 158.718 -22.0266
    endloop
  endfacet
  facet normal -0.814943 0.568113 -0.114521
    outer loop
      vertex -68.6049 160.305 -21.9214
      vertex -69.9904 158.718 -19.9348
      vertex -68.9055 160.305 -19.7823
    endloop
  endfacet
  facet normal 0.243762 0.967165 -0.0719194
    outer loop
      vertex 69.0094 161.811 -8.6707
      vertex 67.7471 162.731 -0.577044
      vertex 68.5791 162.53 -0.460109
    endloop
  endfacet
  facet normal 0.243545 0.967216 -0.0719591
    outer loop
      vertex 67.7471 162.731 -0.577044
      vertex 69.0094 161.811 -8.6707
      vertex 67.2149 162.25 -8.84349
    endloop
  endfacet
  facet normal 0.991967 -0.119515 0.0414483
    outer loop
      vertex 73.6071 -155.929 0.246531
      vertex 73.9221 -156.243 -8.19766
      vertex 73.9275 -156.198 -8.19714
    endloop
  endfacet
  facet normal 0.991899 -0.120069 0.0414664
    outer loop
      vertex 73.9221 -156.243 -8.19766
      vertex 73.6071 -155.929 0.246531
      vertex 73.4805 -156.981 0.228732
    endloop
  endfacet
  facet normal -0.925899 -0.354655 -0.130116
    outer loop
      vertex -69.6964 -158.718 -22.0266
      vertex -70.6676 -156.915 -20.03
      vertex -70.3778 -156.915 -22.0922
    endloop
  endfacet
  facet normal -0.925904 -0.354637 -0.130135
    outer loop
      vertex -70.6676 -156.915 -20.03
      vertex -69.6964 -158.718 -22.0266
      vertex -69.9904 -158.718 -19.9348
    endloop
  endfacet
  facet normal 0.935396 -0.353139 0.018072
    outer loop
      vertex 73.1022 -157.986 0.175563
      vertex 73.2407 -158.051 -8.26327
      vertex 73.9058 -156.286 -8.19923
    endloop
  endfacet
  facet normal 0.935282 -0.353442 0.0180724
    outer loop
      vertex 73.2407 -158.051 -8.26327
      vertex 73.1022 -157.986 0.175563
      vertex 72.8007 -158.786 0.13319
    endloop
  endfacet
  facet normal 0.934706 -0.354972 0.0178958
    outer loop
      vertex 73.4805 -156.981 0.228732
      vertex 73.9058 -156.286 -8.19923
      vertex 73.9221 -156.243 -8.19766
    endloop
  endfacet
  facet normal 0.935423 -0.353067 0.0180891
    outer loop
      vertex 73.9058 -156.286 -8.19923
      vertex 73.4805 -156.981 0.228732
      vertex 73.1022 -157.986 0.175563
    endloop
  endfacet
  facet normal 0.665923 0.745402 -0.0303704
    outer loop
      vertex 72.1491 159.64 -8.36838
      vertex 70.9061 161.086 -0.133075
      vertex 71.7116 160.371 -0.0198653
    endloop
  endfacet
  facet normal 0.66637 0.745008 -0.0302338
    outer loop
      vertex 70.9061 161.086 -0.133075
      vertex 72.1491 159.64 -8.36838
      vertex 72.0952 159.688 -8.37357
    endloop
  endfacet
  facet normal -0.925899 0.354655 -0.130116
    outer loop
      vertex -70.6676 156.915 -20.03
      vertex -69.6964 158.718 -22.0266
      vertex -70.3778 156.915 -22.0922
    endloop
  endfacet
  facet normal -0.925904 0.354637 -0.130135
    outer loop
      vertex -69.6964 158.718 -22.0266
      vertex -70.6676 156.915 -20.03
      vertex -69.9904 158.718 -19.9348
    endloop
  endfacet
  facet normal 0.0173211 -0.996115 -0.0863436
    outer loop
      vertex 6.21723 -163.294 -9.2245
      vertex 67.1437 -162.267 -8.85034
      vertex 66.7177 -162.979 -0.721713
    endloop
  endfacet
  facet normal 0.0173215 -0.996108 -0.0864174
    outer loop
      vertex 67.1437 -162.267 -8.85034
      vertex 6.21723 -163.294 -9.2245
      vertex -27.15 -163.119 -17.9298
    endloop
  endfacet
  facet normal -0.237211 -0.970886 -0.0333393
    outer loop
      vertex -65.4651 -162.48 -21.6191
      vertex -63.9306 -162.942 -19.0831
      vertex -65.7849 -162.48 -19.3437
    endloop
  endfacet
  facet normal -0.237209 -0.970886 -0.0333406
    outer loop
      vertex -63.9306 -162.942 -19.0831
      vertex -65.4651 -162.48 -21.6191
      vertex -63.5994 -162.942 -21.4395
    endloop
  endfacet
  facet normal -0.983054 -0.120499 -0.138151
    outer loop
      vertex -70.3778 -156.915 -22.0922
      vertex -70.8978 -155 -20.0623
      vertex -70.6094 -155 -22.1145
    endloop
  endfacet
  facet normal -0.983054 -0.120502 -0.138148
    outer loop
      vertex -70.8978 -155 -20.0623
      vertex -70.3778 -156.915 -22.0922
      vertex -70.6676 -156.915 -20.03
    endloop
  endfacet
  facet normal -0.990269 0 -0.139165
    outer loop
      vertex -70.6094 -155 -22.1145
      vertex -70.8978 155 -20.0623
      vertex -70.6094 155 -22.1145
    endloop
  endfacet
  facet normal -0.990269 -0 -0.139165
    outer loop
      vertex -70.8978 155 -20.0623
      vertex -70.6094 -155 -22.1145
      vertex -70.8978 -155 -20.0623
    endloop
  endfacet
  facet normal 0.468064 0.882118 -0.0527604
    outer loop
      vertex 70.7109 160.918 -8.50687
      vertex 69.3287 162.139 -0.354768
      vertex 70.2766 161.644 -0.221539
    endloop
  endfacet
  facet normal 0.466971 0.882681 -0.0530301
    outer loop
      vertex 69.3287 162.139 -0.354768
      vertex 70.7109 160.918 -8.50687
      vertex 70.6421 160.954 -8.51349
    endloop
  endfacet
  facet normal 0.243153 0.967316 -0.0719397
    outer loop
      vertex 67.2149 162.25 -8.84349
      vertex 66.7177 162.979 -0.721713
      vertex 67.7471 162.731 -0.577044
    endloop
  endfacet
  facet normal 0.238207 0.968516 -0.0723501
    outer loop
      vertex 66.7177 162.979 -0.721713
      vertex 67.2149 162.25 -8.84349
      vertex 67.1437 162.267 -8.85034
    endloop
  endfacet
  facet normal 0.665419 0.745846 -0.0305131
    outer loop
      vertex 72.0952 159.688 -8.37357
      vertex 70.2766 161.644 -0.221539
      vertex 70.9061 161.086 -0.133075
    endloop
  endfacet
  facet normal 0.665546 0.745735 -0.0304584
    outer loop
      vertex 70.2766 161.644 -0.221539
      vertex 72.0952 159.688 -8.37357
      vertex 70.7109 160.918 -8.50687
    endloop
  endfacet
  facet normal -0.00504882 -0.999987 -0.000762346
    outer loop
      vertex -63.9306 -162.942 -19.0831
      vertex -28.8251 -163.12 -18.0911
      vertex 3.56319 -163.29 -9.5975
    endloop
  endfacet
  facet normal -0.00505031 -0.999987 -0.000709838
    outer loop
      vertex -28.8251 -163.12 -18.0911
      vertex -63.9306 -162.942 -19.0831
      vertex -63.5994 -162.942 -21.4395
    endloop
  endfacet
  facet normal 0.665419 -0.745846 -0.0305131
    outer loop
      vertex 70.2766 -161.644 -0.221539
      vertex 72.0952 -159.688 -8.37357
      vertex 70.9061 -161.086 -0.133075
    endloop
  endfacet
  facet normal 0.665546 -0.745735 -0.0304584
    outer loop
      vertex 72.0952 -159.688 -8.37357
      vertex 70.2766 -161.644 -0.221539
      vertex 70.7109 -160.918 -8.50687
    endloop
  endfacet
  facet normal 0.0061185 -0.999033 -0.0435353
    outer loop
      vertex 5.31486 -163.294 -9.35132
      vertex -27.15 -163.119 -17.9298
      vertex 6.21723 -163.294 -9.2245
    endloop
  endfacet
  facet normal 0.00616379 -0.999025 -0.0437066
    outer loop
      vertex -27.15 -163.119 -17.9298
      vertex 5.31486 -163.294 -9.35132
      vertex -28.1719 -163.121 -18.0282
    endloop
  endfacet
  facet normal -0.656707 -0.748478 -0.0922847
    outer loop
      vertex -68.6049 -160.305 -21.9214
      vertex -67.476 -161.584 -19.5814
      vertex -68.9055 -160.305 -19.7823
    endloop
  endfacet
  facet normal -0.656702 -0.748482 -0.0922891
    outer loop
      vertex -67.476 -161.584 -19.5814
      vertex -68.6049 -160.305 -21.9214
      vertex -67.1666 -161.584 -21.783
    endloop
  endfacet
  facet normal 0.824524 0.565792 -0.00632009
    outer loop
      vertex 73.2407 158.051 -8.26327
      vertex 72.3219 159.483 0.0659041
      vertex 72.8007 158.786 0.13319
    endloop
  endfacet
  facet normal 0.824441 0.565912 -0.00634987
    outer loop
      vertex 72.3219 159.483 0.0659041
      vertex 73.2407 158.051 -8.26327
      vertex 72.1897 159.581 -8.36447
    endloop
  endfacet
  facet normal 0.0173211 0.996115 -0.0863436
    outer loop
      vertex 67.1437 162.267 -8.85034
      vertex 6.21723 163.294 -9.2245
      vertex 66.7177 162.979 -0.721713
    endloop
  endfacet
  facet normal 0.0173215 0.996108 -0.0864174
    outer loop
      vertex 6.21723 163.294 -9.2245
      vertex 67.1437 162.267 -8.85034
      vertex -27.15 163.119 -17.9298
    endloop
  endfacet
  facet normal -0.00504882 0.999987 -0.000762346
    outer loop
      vertex -28.8251 163.12 -18.0911
      vertex -63.9306 162.942 -19.0831
      vertex 3.56319 163.29 -9.5975
    endloop
  endfacet
  facet normal -0.00505031 0.999987 -0.000709838
    outer loop
      vertex -63.9306 162.942 -19.0831
      vertex -28.8251 163.12 -18.0911
      vertex -63.5994 162.942 -21.4395
    endloop
  endfacet
  facet normal -0.656702 0.748482 -0.0922891
    outer loop
      vertex -68.6049 160.305 -21.9214
      vertex -67.476 161.584 -19.5814
      vertex -67.1666 161.584 -21.783
    endloop
  endfacet
  facet normal -0.656707 0.748478 -0.0922847
    outer loop
      vertex -67.476 161.584 -19.5814
      vertex -68.6049 160.305 -21.9214
      vertex -68.9055 160.305 -19.7823
    endloop
  endfacet
  facet normal 0.243153 -0.967316 -0.0719397
    outer loop
      vertex 66.7177 -162.979 -0.721713
      vertex 67.2149 -162.25 -8.84349
      vertex 67.7471 -162.731 -0.577044
    endloop
  endfacet
  facet normal 0.238207 -0.968516 -0.0723501
    outer loop
      vertex 67.2149 -162.25 -8.84349
      vertex 66.7177 -162.979 -0.721713
      vertex 67.1437 -162.267 -8.85034
    endloop
  endfacet
  facet normal 0.00113285 0.999704 -0.0243042
    outer loop
      vertex -28.1719 163.121 -18.0282
      vertex 3.56319 163.29 -9.5975
      vertex 5.31486 163.294 -9.35132
    endloop
  endfacet
  facet normal 0.00062631 0.999749 -0.0223983
    outer loop
      vertex 3.56319 163.29 -9.5975
      vertex -28.1719 163.121 -18.0282
      vertex -28.8251 163.12 -18.0911
    endloop
  endfacet
  facet normal 0.824398 -0.565975 -0.00634846
    outer loop
      vertex 71.7116 -160.371 -0.0198653
      vertex 72.1897 -159.581 -8.36447
      vertex 72.3219 -159.483 0.0659041
    endloop
  endfacet
  facet normal 0.823979 -0.566583 -0.00643006
    outer loop
      vertex 72.1897 -159.581 -8.36447
      vertex 71.7116 -160.371 -0.0198653
      vertex 72.1491 -159.64 -8.36838
    endloop
  endfacet
  facet normal 0.665923 -0.745402 -0.0303704
    outer loop
      vertex 70.9061 -161.086 -0.133075
      vertex 72.1491 -159.64 -8.36838
      vertex 71.7116 -160.371 -0.0198653
    endloop
  endfacet
  facet normal 0.66637 -0.745008 -0.0302338
    outer loop
      vertex 72.1491 -159.64 -8.36838
      vertex 70.9061 -161.086 -0.133075
      vertex 72.0952 -159.688 -8.37357
    endloop
  endfacet
  facet normal -0.460087 -0.885516 -0.064658
    outer loop
      vertex -67.1666 -161.584 -21.783
      vertex -65.7849 -162.48 -19.3437
      vertex -67.476 -161.584 -19.5814
    endloop
  endfacet
  facet normal -0.460081 -0.885519 -0.0646628
    outer loop
      vertex -65.7849 -162.48 -19.3437
      vertex -67.1666 -161.584 -21.783
      vertex -65.4651 -162.48 -21.6191
    endloop
  endfacet
  facet normal 0.468064 -0.882118 -0.0527604
    outer loop
      vertex 69.3287 -162.139 -0.354768
      vertex 70.7109 -160.918 -8.50687
      vertex 70.2766 -161.644 -0.221539
    endloop
  endfacet
  facet normal 0.466971 -0.882681 -0.0530301
    outer loop
      vertex 70.7109 -160.918 -8.50687
      vertex 69.3287 -162.139 -0.354768
      vertex 70.6421 -160.954 -8.51349
    endloop
  endfacet
  facet normal -0.460081 0.885519 -0.0646628
    outer loop
      vertex -67.1666 161.584 -21.783
      vertex -65.7849 162.48 -19.3437
      vertex -65.4651 162.48 -21.6191
    endloop
  endfacet
  facet normal -0.460087 0.885516 -0.064658
    outer loop
      vertex -65.7849 162.48 -19.3437
      vertex -67.1666 161.584 -21.783
      vertex -67.476 161.584 -19.5814
    endloop
  endfacet
  facet normal -0.237209 0.970886 -0.0333406
    outer loop
      vertex -65.4651 162.48 -21.6191
      vertex -63.9306 162.942 -19.0831
      vertex -63.5994 162.942 -21.4395
    endloop
  endfacet
  facet normal -0.237211 0.970886 -0.0333393
    outer loop
      vertex -63.9306 162.942 -19.0831
      vertex -65.4651 162.48 -21.6191
      vertex -65.7849 162.48 -19.3437
    endloop
  endfacet
  facet normal 0.467661 -0.882326 -0.0528674
    outer loop
      vertex 68.5791 -162.53 -0.460109
      vertex 70.6421 -160.954 -8.51349
      vertex 69.3287 -162.139 -0.354768
    endloop
  endfacet
  facet normal 0.468091 -0.882106 -0.0527142
    outer loop
      vertex 70.6421 -160.954 -8.51349
      vertex 68.5791 -162.53 -0.460109
      vertex 69.0094 -161.811 -8.6707
    endloop
  endfacet
  facet normal 0.243762 -0.967165 -0.0719194
    outer loop
      vertex 67.7471 -162.731 -0.577044
      vertex 69.0094 -161.811 -8.6707
      vertex 68.5791 -162.53 -0.460109
    endloop
  endfacet
  facet normal 0.243545 -0.967216 -0.0719591
    outer loop
      vertex 69.0094 -161.811 -8.6707
      vertex 67.7471 -162.731 -0.577044
      vertex 67.2149 -162.25 -8.84349
    endloop
  endfacet
  facet normal 0.00113285 -0.999704 -0.0243042
    outer loop
      vertex 3.56319 -163.29 -9.5975
      vertex -28.1719 -163.121 -18.0282
      vertex 5.31486 -163.294 -9.35132
    endloop
  endfacet
  facet normal 0.00062631 -0.999749 -0.0223983
    outer loop
      vertex -28.1719 -163.121 -18.0282
      vertex 3.56319 -163.29 -9.5975
      vertex -28.8251 -163.12 -18.0911
    endloop
  endfacet
  facet normal 0.0958461 -3.49599e-07 -0.995396
    outer loop
      vertex 67.2149 -162.25 -8.84349
      vertex 74.1537 -154.322 -8.17536
      vertex 73.9275 -156.198 -8.19714
    endloop
  endfacet
  facet normal 0.0958458 0 -0.995396
    outer loop
      vertex 74.1537 -154.322 -8.17536
      vertex -27.15 -163.119 -17.9298
      vertex 74.1537 154.322 -8.17536
    endloop
  endfacet
  facet normal 0.0958857 -3.97124e-06 -0.995392
    outer loop
      vertex 73.9058 -156.286 -8.19923
      vertex 73.9275 -156.198 -8.19714
      vertex 73.9221 -156.243 -8.19766
    endloop
  endfacet
  facet normal 0.0958458 0 -0.995396
    outer loop
      vertex -27.15 163.119 -17.9298
      vertex 74.1537 154.322 -8.17536
      vertex -27.15 -163.119 -17.9298
    endloop
  endfacet
  facet normal 0.0958389 7.66839e-06 -0.995397
    outer loop
      vertex 67.2149 -162.25 -8.84349
      vertex 73.9275 -156.198 -8.19714
      vertex 73.9058 -156.286 -8.19923
    endloop
  endfacet
  facet normal 0.0958459 8.74564e-07 -0.995396
    outer loop
      vertex 67.1437 162.267 -8.85034
      vertex 74.1537 154.322 -8.17536
      vertex -27.15 163.119 -17.9298
    endloop
  endfacet
  facet normal 0.095847 -1.53445e-06 -0.995396
    outer loop
      vertex 67.2149 -162.25 -8.84349
      vertex 73.9058 -156.286 -8.19923
      vertex 73.2407 -158.051 -8.26327
    endloop
  endfacet
  facet normal 0.0957445 -8.93407e-05 -0.995406
    outer loop
      vertex 67.2149 162.25 -8.84349
      vertex 74.1537 154.322 -8.17536
      vertex 67.1437 162.267 -8.85034
    endloop
  endfacet
  facet normal 0.095846 -5.38463e-08 -0.995396
    outer loop
      vertex 67.2149 -162.25 -8.84349
      vertex 73.2407 -158.051 -8.26327
      vertex 72.1897 -159.581 -8.36447
    endloop
  endfacet
  facet normal 0.0958461 3.49599e-07 -0.995396
    outer loop
      vertex 74.1537 154.322 -8.17536
      vertex 67.2149 162.25 -8.84349
      vertex 73.9275 156.198 -8.19714
    endloop
  endfacet
  facet normal 0.0958212 2.82944e-05 -0.995399
    outer loop
      vertex 72.0952 -159.688 -8.37357
      vertex 72.1897 -159.581 -8.36447
      vertex 72.1491 -159.64 -8.36838
    endloop
  endfacet
  facet normal 0.0958857 3.97124e-06 -0.995392
    outer loop
      vertex 73.9275 156.198 -8.19714
      vertex 73.9058 156.286 -8.19923
      vertex 73.9221 156.243 -8.19766
    endloop
  endfacet
  facet normal 0.0958398 1.16924e-05 -0.995397
    outer loop
      vertex 67.2149 -162.25 -8.84349
      vertex 72.1897 -159.581 -8.36447
      vertex 72.0952 -159.688 -8.37357
    endloop
  endfacet
  facet normal 0.0958389 -7.66839e-06 -0.995397
    outer loop
      vertex 73.9275 156.198 -8.19714
      vertex 67.2149 162.25 -8.84349
      vertex 73.9058 156.286 -8.19923
    endloop
  endfacet
  facet normal 0.0956751 0.000199545 -0.995413
    outer loop
      vertex 70.6421 -160.954 -8.51349
      vertex 72.0952 -159.688 -8.37357
      vertex 70.7109 -160.918 -8.50687
    endloop
  endfacet
  facet normal 0.095847 1.53445e-06 -0.995396
    outer loop
      vertex 73.9058 156.286 -8.19923
      vertex 67.2149 162.25 -8.84349
      vertex 73.2407 158.051 -8.26327
    endloop
  endfacet
  facet normal 0.0958436 4.38756e-06 -0.995396
    outer loop
      vertex 67.2149 -162.25 -8.84349
      vertex 72.0952 -159.688 -8.37357
      vertex 70.6421 -160.954 -8.51349
    endloop
  endfacet
  facet normal 0.095846 5.38463e-08 -0.995396
    outer loop
      vertex 73.2407 158.051 -8.26327
      vertex 67.2149 162.25 -8.84349
      vertex 72.1897 159.581 -8.36447
    endloop
  endfacet
  facet normal 0.0958456 -1.07646e-06 -0.995396
    outer loop
      vertex 67.2149 -162.25 -8.84349
      vertex 70.6421 -160.954 -8.51349
      vertex 69.0094 -161.811 -8.6707
    endloop
  endfacet
  facet normal 0.0957445 8.93407e-05 -0.995406
    outer loop
      vertex 74.1537 -154.322 -8.17536
      vertex 67.2149 -162.25 -8.84349
      vertex 67.1437 -162.267 -8.85034
    endloop
  endfacet
  facet normal 0.0958459 -8.74564e-07 -0.995396
    outer loop
      vertex 74.1537 -154.322 -8.17536
      vertex 67.1437 -162.267 -8.85034
      vertex -27.15 -163.119 -17.9298
    endloop
  endfacet
  facet normal 0.0958456 1.07646e-06 -0.995396
    outer loop
      vertex 70.6421 160.954 -8.51349
      vertex 67.2149 162.25 -8.84349
      vertex 69.0094 161.811 -8.6707
    endloop
  endfacet
  facet normal 0.0958212 -2.82944e-05 -0.995399
    outer loop
      vertex 72.1897 159.581 -8.36447
      vertex 72.0952 159.688 -8.37357
      vertex 72.1491 159.64 -8.36838
    endloop
  endfacet
  facet normal 0.0958436 -4.38756e-06 -0.995396
    outer loop
      vertex 72.0952 159.688 -8.37357
      vertex 67.2149 162.25 -8.84349
      vertex 70.6421 160.954 -8.51349
    endloop
  endfacet
  facet normal 0.0958398 -1.16924e-05 -0.995397
    outer loop
      vertex 72.1897 159.581 -8.36447
      vertex 67.2149 162.25 -8.84349
      vertex 72.0952 159.688 -8.37357
    endloop
  endfacet
  facet normal 0.0956751 -0.000199545 -0.995413
    outer loop
      vertex 72.0952 159.688 -8.37357
      vertex 70.6421 160.954 -8.51349
      vertex 70.7109 160.918 -8.50687
    endloop
  endfacet
  facet normal 0.0958479 7.12734e-06 -0.995396
    outer loop
      vertex -70.6094 -155 -22.1145
      vertex -27.15 -163.119 -17.9298
      vertex -28.1719 -163.121 -18.0282
    endloop
  endfacet
  facet normal 0.0958466 0 -0.995396
    outer loop
      vertex -27.15 -163.119 -17.9298
      vertex -70.6094 -155 -22.1145
      vertex -27.15 163.119 -17.9298
    endloop
  endfacet
  facet normal 0.0958518 2.79181e-05 -0.995396
    outer loop
      vertex -70.6094 -155 -22.1145
      vertex -28.1719 -163.121 -18.0282
      vertex -28.8251 -163.12 -18.0911
    endloop
  endfacet
  facet normal 0.0958466 0 -0.995396
    outer loop
      vertex -70.6094 155 -22.1145
      vertex -27.15 163.119 -17.9298
      vertex -70.6094 -155 -22.1145
    endloop
  endfacet
  facet normal 0.0958462 -1.33417e-06 -0.995396
    outer loop
      vertex -70.6094 -155 -22.1145
      vertex -28.8251 -163.12 -18.0911
      vertex -63.5994 -162.942 -21.4395
    endloop
  endfacet
  facet normal 0.0958479 -7.12734e-06 -0.995396
    outer loop
      vertex -27.15 163.119 -17.9298
      vertex -70.6094 155 -22.1145
      vertex -28.1719 163.121 -18.0282
    endloop
  endfacet
  facet normal 0.0958138 -3.02176e-05 -0.995399
    outer loop
      vertex -70.6094 -155 -22.1145
      vertex -63.5994 -162.942 -21.4395
      vertex -65.4651 -162.48 -21.6191
    endloop
  endfacet
  facet normal 0.0958518 -2.79181e-05 -0.995396
    outer loop
      vertex -28.1719 163.121 -18.0282
      vertex -70.6094 155 -22.1145
      vertex -28.8251 163.12 -18.0911
    endloop
  endfacet
  facet normal 0.0958975 2.79161e-05 -0.995391
    outer loop
      vertex -70.6094 -155 -22.1145
      vertex -65.4651 -162.48 -21.6191
      vertex -67.1666 -161.584 -21.783
    endloop
  endfacet
  facet normal 0.0958462 1.33417e-06 -0.995396
    outer loop
      vertex -28.8251 163.12 -18.0911
      vertex -70.6094 155 -22.1145
      vertex -63.5994 162.942 -21.4395
    endloop
  endfacet
  facet normal 0.0957281 -6.14818e-05 -0.995408
    outer loop
      vertex -70.6094 -155 -22.1145
      vertex -67.1666 -161.584 -21.783
      vertex -68.6049 -160.305 -21.9214
    endloop
  endfacet
  facet normal 0.0958138 3.02176e-05 -0.995399
    outer loop
      vertex -63.5994 162.942 -21.4395
      vertex -70.6094 155 -22.1145
      vertex -65.4651 162.48 -21.6191
    endloop
  endfacet
  facet normal 0.0959941 3.996e-05 -0.995382
    outer loop
      vertex -70.6094 -155 -22.1145
      vertex -68.6049 -160.305 -21.9214
      vertex -69.6964 -158.718 -22.0266
    endloop
  endfacet
  facet normal 0.0958975 -2.79161e-05 -0.995391
    outer loop
      vertex -65.4651 162.48 -21.6191
      vertex -70.6094 155 -22.1145
      vertex -67.1666 161.584 -21.783
    endloop
  endfacet
  facet normal 0.0958227 -2.53531e-06 -0.995398
    outer loop
      vertex -70.6094 -155 -22.1145
      vertex -69.6964 -158.718 -22.0266
      vertex -70.3778 -156.915 -22.0922
    endloop
  endfacet
  facet normal 0.0957281 6.14818e-05 -0.995408
    outer loop
      vertex -67.1666 161.584 -21.783
      vertex -70.6094 155 -22.1145
      vertex -68.6049 160.305 -21.9214
    endloop
  endfacet
  facet normal 0.0959941 -3.996e-05 -0.995382
    outer loop
      vertex -68.6049 160.305 -21.9214
      vertex -70.6094 155 -22.1145
      vertex -69.6964 158.718 -22.0266
    endloop
  endfacet
  facet normal 0.0958227 2.53531e-06 -0.995398
    outer loop
      vertex -69.6964 158.718 -22.0266
      vertex -70.6094 155 -22.1145
      vertex -70.3778 156.915 -22.0922
    endloop
  endfacet
  facet normal -0.0958457 0 0.995396
    outer loop
      vertex -69.6777 140 -22.2092
      vertex 64.7008 -155 -9.27003
      vertex 64.7008 155 -9.27003
    endloop
  endfacet
  facet normal -0.0958457 0 0.995396
    outer loop
      vertex 64.7008 -155 -9.27003
      vertex -69.6777 140 -22.2092
      vertex -69.6777 -140 -22.2092
    endloop
  endfacet
  facet normal 0.77162 0 -0.636084
    outer loop
      vertex 64.7008 155 -9.27003
      vertex 55.7052 -135 -20.1824
      vertex 55.7052 135 -20.1824
    endloop
  endfacet
  facet normal 0.77162 0 -0.636084
    outer loop
      vertex 55.7052 -135 -20.1824
      vertex 64.7008 155 -9.27003
      vertex 64.7008 -155 -9.27003
    endloop
  endfacet
  facet normal 0.0333501 0.467096 -0.883577
    outer loop
      vertex 55.7052 135 -20.1824
      vertex -64.4132 135 -24.7162
      vertex 64.7008 155 -9.27003
    endloop
  endfacet
  facet normal 0.0317389 0.474493 -0.879687
    outer loop
      vertex -64.4132 135 -24.7162
      vertex -69.6777 140 -22.2092
      vertex 64.7008 155 -9.27003
    endloop
  endfacet
  facet normal 0.0333501 -0.467096 -0.883577
    outer loop
      vertex 64.7008 -155 -9.27003
      vertex -64.4132 -135 -24.7162
      vertex 55.7052 -135 -20.1824
    endloop
  endfacet
  facet normal 0.0317389 -0.474493 -0.879687
    outer loop
      vertex 64.7008 -155 -9.27003
      vertex -69.6777 -140 -22.2092
      vertex -64.4132 -135 -24.7162
    endloop
  endfacet
  facet normal -0.429947 0 -0.902854
    outer loop
      vertex -69.6777 -140 -22.2092
      vertex -64.4132 135 -24.7162
      vertex -64.4132 -135 -24.7162
    endloop
  endfacet
  facet normal -0.429947 0 -0.902854
    outer loop
      vertex -64.4132 135 -24.7162
      vertex -69.6777 -140 -22.2092
      vertex -69.6777 140 -22.2092
    endloop
  endfacet
  facet normal 0.0377176 0 -0.999288
    outer loop
      vertex -64.4132 -135 -24.7162
      vertex 55.7052 135 -20.1824
      vertex 55.7052 -135 -20.1824
    endloop
  endfacet
  facet normal 0.0377176 0 -0.999288
    outer loop
      vertex 55.7052 135 -20.1824
      vertex -64.4132 -135 -24.7162
      vertex -64.4132 135 -24.7162
    endloop
  endfacet
endsolid OpenSCAD_Model
